<?xml version="1.0" encoding="UTF-8" standalone="no"?>
<!DOCTYPE svg PUBLIC "-//W3C//DTD SVG 1.1//EN"
 "http://www.w3.org/Graphics/SVG/1.1/DTD/svg11.dtd">
<!-- Generated by graphviz version 2.40.1 (20161225.0304)
 -->
<!-- Title: dependencies Pages: 1 -->
<svg width="504pt" height="284pt"
 viewBox="0.00 0.00 504.00 284.00" xmlns="http://www.w3.org/2000/svg" xmlns:xlink="http://www.w3.org/1999/xlink">
<g id="graph0" class="graph" transform="scale(1 1) rotate(0) translate(4 280)">
<title>dependencies</title>
<polygon fill="#ffffff" stroke="transparent" points="-4,4 -4,-280 500,-280 500,4 -4,4"/>
<text text-anchor="start" x="227.0091" y="-42.4" font-family="sans-serif" font-weight="bold" font-size="14.00" fill="#000000">Legend</text>
<polygon fill="#ffffb3" stroke="transparent" points="14,-10 14,-30 34,-30 34,-10 14,-10"/>
<text text-anchor="start" x="37.629" y="-15.4" font-family="sans-serif" font-size="14.00" fill="#000000"> &#160;Declarations</text>
<polygon fill="#8dd3c7" stroke="transparent" points="127,-10 127,-30 147,-30 147,-10 127,-10"/>
<text text-anchor="start" x="150.7251" y="-15.4" font-family="sans-serif" font-size="14.00" fill="#000000"> &#160;Module</text>
<polygon fill="#80b1d3" stroke="transparent" points="213,-10 213,-30 233,-30 233,-10 213,-10"/>
<text text-anchor="start" x="236.7812" y="-15.4" font-family="sans-serif" font-size="14.00" fill="#000000"> &#160;Bootstrap</text>
<polygon fill="#fdb462" stroke="transparent" points="310,-10 310,-30 330,-30 330,-10 310,-10"/>
<text text-anchor="start" x="333.6732" y="-15.4" font-family="sans-serif" font-size="14.00" fill="#000000"> &#160;Providers</text>
<polygon fill="#fb8072" stroke="transparent" points="406,-10 406,-30 426,-30 426,-10 406,-10"/>
<text text-anchor="start" x="429.7258" y="-15.4" font-family="sans-serif" font-size="14.00" fill="#000000"> &#160;Exports</text>
<g id="clust1" class="cluster">
<title>cluster_NgXLightTableModule</title>
<polygon fill="none" stroke="#000000" stroke-dasharray="1,5" points="37,-70 37,-268 459,-268 459,-70 37,-70"/>
</g>
<g id="clust3" class="cluster">
<title>cluster_NgXLightTableModule_imports</title>
<polygon fill="none" stroke="#000000" points="190,-78 190,-130 318,-130 318,-78 190,-78"/>
</g>
<g id="clust4" class="cluster">
<title>cluster_NgXLightTableModule_exports</title>
<polygon fill="none" stroke="#000000" points="45,-208 45,-260 451,-260 451,-208 45,-208"/>
</g>
<!-- CommonModule -->
<g id="node1" class="node">
<title>CommonModule</title>
<polygon fill="#8dd3c7" stroke="#000000" points="309.6681,-122 306.6681,-126 285.6681,-126 282.6681,-122 198.3319,-122 198.3319,-86 309.6681,-86 309.6681,-122"/>
<text text-anchor="middle" x="254" y="-99.8" font-family="Times,serif" font-size="14.00" fill="#000000">CommonModule</text>
</g>
<!-- NgXLightTableModule -->
<g id="node2" class="node">
<title>NgXLightTableModule</title>
<polygon fill="#8dd3c7" stroke="#000000" points="328.4692,-187 325.4692,-191 304.4692,-191 301.4692,-187 179.5308,-187 179.5308,-151 328.4692,-151 328.4692,-187"/>
<text text-anchor="middle" x="254" y="-164.8" font-family="Times,serif" font-size="14.00" fill="#000000">NgXLightTableModule</text>
</g>
<!-- CommonModule&#45;&gt;NgXLightTableModule -->
<g id="edge1" class="edge">
<title>CommonModule&#45;&gt;NgXLightTableModule</title>
<path fill="none" stroke="#000000" d="M254,-122.1061C254,-122.1061 254,-140.991 254,-140.991"/>
<polygon fill="#000000" stroke="#000000" points="250.5001,-140.9909 254,-150.991 257.5001,-140.991 250.5001,-140.9909"/>
</g>
<!-- NgXLightTableComponent  -->
<g id="node3" class="node">
<title>NgXLightTableComponent </title>
<polygon fill="#fb8072" stroke="#000000" points="443.252,-252 268.748,-252 268.748,-216 443.252,-216 443.252,-252"/>
<text text-anchor="middle" x="356" y="-229.8" font-family="Times,serif" font-size="14.00" fill="#000000">NgXLightTableComponent </text>
</g>
<!-- NgXLightTableModule&#45;&gt;NgXLightTableComponent  -->
<g id="edge2" class="edge">
<title>NgXLightTableModule&#45;&gt;NgXLightTableComponent </title>
<path fill="none" stroke="#000000" stroke-dasharray="5,2" d="M298.6794,-187.1061C298.6794,-187.1061 298.6794,-205.991 298.6794,-205.991"/>
<polygon fill="#000000" stroke="#000000" points="295.1794,-205.9909 298.6794,-215.991 302.1794,-205.991 295.1794,-205.9909"/>
</g>
<!-- NgXLightTableCellComponent  -->
<g id="node4" class="node">
<title>NgXLightTableCellComponent </title>
<polygon fill="#fb8072" stroke="#000000" points="250.5846,-252 53.4154,-252 53.4154,-216 250.5846,-216 250.5846,-252"/>
<text text-anchor="middle" x="152" y="-229.8" font-family="Times,serif" font-size="14.00" fill="#000000">NgXLightTableCellComponent </text>
</g>
<!-- NgXLightTableModule&#45;&gt;NgXLightTableCellComponent  -->
<g id="edge3" class="edge">
<title>NgXLightTableModule&#45;&gt;NgXLightTableCellComponent </title>
<path fill="none" stroke="#000000" stroke-dasharray="5,2" d="M215.1538,-187.1061C215.1538,-187.1061 215.1538,-205.991 215.1538,-205.991"/>
<polygon fill="#000000" stroke="#000000" points="211.6538,-205.9909 215.1538,-215.991 218.6538,-205.991 211.6538,-205.9909"/>
</g>
</g>
</svg>
