<?xml version="1.0" encoding="UTF-8" standalone="no"?>
<!DOCTYPE svg PUBLIC "-//W3C//DTD SVG 1.1//EN"
 "http://www.w3.org/Graphics/SVG/1.1/DTD/svg11.dtd">
<!-- Generated by graphviz version 2.40.1 (20161225.0304)
 -->
<!-- Title: dependencies Pages: 1 -->
<svg width="574pt" height="284pt"
 viewBox="0.00 0.00 574.00 284.00" xmlns="http://www.w3.org/2000/svg" xmlns:xlink="http://www.w3.org/1999/xlink">
<g id="graph0" class="graph" transform="scale(1 1) rotate(0) translate(4 280)">
<title>dependencies</title>
<polygon fill="#ffffff" stroke="transparent" points="-4,4 -4,-280 570,-280 570,4 -4,4"/>
<text text-anchor="start" x="262.0091" y="-42.4" font-family="sans-serif" font-weight="bold" font-size="14.00" fill="#000000">Legend</text>
<polygon fill="#ffffb3" stroke="transparent" points="49,-10 49,-30 69,-30 69,-10 49,-10"/>
<text text-anchor="start" x="72.629" y="-15.4" font-family="sans-serif" font-size="14.00" fill="#000000"> &#160;Declarations</text>
<polygon fill="#8dd3c7" stroke="transparent" points="162,-10 162,-30 182,-30 182,-10 162,-10"/>
<text text-anchor="start" x="185.7251" y="-15.4" font-family="sans-serif" font-size="14.00" fill="#000000"> &#160;Module</text>
<polygon fill="#80b1d3" stroke="transparent" points="248,-10 248,-30 268,-30 268,-10 248,-10"/>
<text text-anchor="start" x="271.7812" y="-15.4" font-family="sans-serif" font-size="14.00" fill="#000000"> &#160;Bootstrap</text>
<polygon fill="#fdb462" stroke="transparent" points="345,-10 345,-30 365,-30 365,-10 345,-10"/>
<text text-anchor="start" x="368.6732" y="-15.4" font-family="sans-serif" font-size="14.00" fill="#000000"> &#160;Providers</text>
<polygon fill="#fb8072" stroke="transparent" points="441,-10 441,-30 461,-30 461,-10 441,-10"/>
<text text-anchor="start" x="464.7258" y="-15.4" font-family="sans-serif" font-size="14.00" fill="#000000"> &#160;Exports</text>
<g id="clust1" class="cluster">
<title>cluster_NgXLightTableModule</title>
<polygon fill="none" stroke="#000000" stroke-dasharray="1,5" points="8,-70 8,-268 558,-268 558,-70 8,-70"/>
</g>
<g id="clust2" class="cluster">
<title>cluster_NgXLightTableModule_declarations</title>
<polygon fill="none" stroke="#000000" points="152,-78 152,-130 550,-130 550,-78 152,-78"/>
</g>
<g id="clust5" class="cluster">
<title>cluster_NgXLightTableModule_imports</title>
<polygon fill="none" stroke="#000000" points="16,-78 16,-130 144,-130 144,-78 16,-78"/>
</g>
<g id="clust6" class="cluster">
<title>cluster_NgXLightTableModule_exports</title>
<polygon fill="none" stroke="#000000" points="80,-208 80,-260 486,-260 486,-208 80,-208"/>
</g>
<!-- NgXLightTableComponent -->
<g id="node1" class="node">
<title>NgXLightTableComponent</title>
<polygon fill="#ffffb3" stroke="#000000" points="542.252,-122 371.748,-122 371.748,-86 542.252,-86 542.252,-122"/>
<text text-anchor="middle" x="457" y="-99.8" font-family="Times,serif" font-size="14.00" fill="#000000">NgXLightTableComponent</text>
</g>
<!-- NgXLightTableModule -->
<g id="node3" class="node">
<title>NgXLightTableModule</title>
<polygon fill="#8dd3c7" stroke="#000000" points="331.4692,-187 328.4692,-191 307.4692,-191 304.4692,-187 182.5308,-187 182.5308,-151 331.4692,-151 331.4692,-187"/>
<text text-anchor="middle" x="257" y="-164.8" font-family="Times,serif" font-size="14.00" fill="#000000">NgXLightTableModule</text>
</g>
<!-- NgXLightTableComponent&#45;&gt;NgXLightTableModule -->
<g id="edge1" class="edge">
<title>NgXLightTableComponent&#45;&gt;NgXLightTableModule</title>
<path fill="none" stroke="#000000" d="M424.875,-122.1061C424.875,-141.3391 424.875,-169 424.875,-169 424.875,-169 341.6101,-169 341.6101,-169"/>
<polygon fill="#000000" stroke="#000000" points="341.6101,-165.5001 331.6101,-169 341.61,-172.5001 341.6101,-165.5001"/>
</g>
<!-- NgXLightTableCellComponent -->
<g id="node2" class="node">
<title>NgXLightTableCellComponent</title>
<polygon fill="#ffffb3" stroke="#000000" points="354.0842,-122 159.9158,-122 159.9158,-86 354.0842,-86 354.0842,-122"/>
<text text-anchor="middle" x="257" y="-99.8" font-family="Times,serif" font-size="14.00" fill="#000000">NgXLightTableCellComponent</text>
</g>
<!-- NgXLightTableCellComponent&#45;&gt;NgXLightTableModule -->
<g id="edge2" class="edge">
<title>NgXLightTableCellComponent&#45;&gt;NgXLightTableModule</title>
<path fill="none" stroke="#000000" d="M257,-122.1061C257,-122.1061 257,-140.991 257,-140.991"/>
<polygon fill="#000000" stroke="#000000" points="253.5001,-140.9909 257,-150.991 260.5001,-140.991 253.5001,-140.9909"/>
</g>
<!-- NgXLightTableComponent  -->
<g id="node5" class="node">
<title>NgXLightTableComponent </title>
<polygon fill="#fb8072" stroke="#000000" points="478.252,-252 303.748,-252 303.748,-216 478.252,-216 478.252,-252"/>
<text text-anchor="middle" x="391" y="-229.8" font-family="Times,serif" font-size="14.00" fill="#000000">NgXLightTableComponent </text>
</g>
<!-- NgXLightTableModule&#45;&gt;NgXLightTableComponent  -->
<g id="edge4" class="edge">
<title>NgXLightTableModule&#45;&gt;NgXLightTableComponent </title>
<path fill="none" stroke="#000000" stroke-dasharray="5,2" d="M317.6794,-187.1061C317.6794,-187.1061 317.6794,-205.991 317.6794,-205.991"/>
<polygon fill="#000000" stroke="#000000" points="314.1794,-205.9909 317.6794,-215.991 321.1794,-205.991 314.1794,-205.9909"/>
</g>
<!-- NgXLightTableCellComponent  -->
<g id="node6" class="node">
<title>NgXLightTableCellComponent </title>
<polygon fill="#fb8072" stroke="#000000" points="285.5846,-252 88.4154,-252 88.4154,-216 285.5846,-216 285.5846,-252"/>
<text text-anchor="middle" x="187" y="-229.8" font-family="Times,serif" font-size="14.00" fill="#000000">NgXLightTableCellComponent </text>
</g>
<!-- NgXLightTableModule&#45;&gt;NgXLightTableCellComponent  -->
<g id="edge5" class="edge">
<title>NgXLightTableModule&#45;&gt;NgXLightTableCellComponent </title>
<path fill="none" stroke="#000000" stroke-dasharray="5,2" d="M234.1538,-187.1061C234.1538,-187.1061 234.1538,-205.991 234.1538,-205.991"/>
<polygon fill="#000000" stroke="#000000" points="230.6538,-205.9909 234.1538,-215.991 237.6538,-205.991 230.6538,-205.9909"/>
</g>
<!-- CommonModule -->
<g id="node4" class="node">
<title>CommonModule</title>
<polygon fill="#8dd3c7" stroke="#000000" points="135.6681,-122 132.6681,-126 111.6681,-126 108.6681,-122 24.3319,-122 24.3319,-86 135.6681,-86 135.6681,-122"/>
<text text-anchor="middle" x="80" y="-99.8" font-family="Times,serif" font-size="14.00" fill="#000000">CommonModule</text>
</g>
<!-- CommonModule&#45;&gt;NgXLightTableModule -->
<g id="edge3" class="edge">
<title>CommonModule&#45;&gt;NgXLightTableModule</title>
<path fill="none" stroke="#000000" d="M112.0209,-122.1061C112.0209,-141.3391 112.0209,-169 112.0209,-169 112.0209,-169 172.387,-169 172.387,-169"/>
<polygon fill="#000000" stroke="#000000" points="172.387,-172.5001 182.387,-169 172.3869,-165.5001 172.387,-172.5001"/>
</g>
</g>
</svg>
